<?xml version="1.0" standalone="no"?>
<!DOCTYPE svg PUBLIC "-//W3C//DTD SVG 20010904//EN"
 "http://www.w3.org/TR/2001/REC-SVG-20010904/DTD/svg10.dtd">
<svg version="1.0" xmlns="http://www.w3.org/2000/svg"
 width="1000.000000pt" height="1000.000000pt" viewBox="0 0 1000.000000 1000.000000"
 preserveAspectRatio="xMidYMid meet">
<metadata>
Created by potrace 1.11, written by Peter Selinger 2001-2013
</metadata>
<g transform="translate(0.000000,1000.000000) scale(0.100000,-0.100000)"
fill="#000000" stroke="none">
<path d="M6924 9474 c-126 -26 -245 -114 -302 -223 -51 -98 -50 -77 -51 -1193
0 -572 -1 -1042 -3 -1044 -2 -1 -121 65 -263 147 -143 83 -280 162 -305 176
-25 14 -178 102 -340 196 -162 94 -324 186 -360 204 -101 52 -196 72 -320 69
-141 -4 -218 -31 -428 -152 -92 -53 -187 -108 -212 -122 -67 -38 -75 -42 -479
-276 -206 -119 -376 -216 -379 -216 -3 0 -13 -6 -21 -14 -9 -7 -47 -31 -86
-51 -38 -21 -74 -41 -80 -46 -8 -6 -103 -61 -245 -141 -279 -158 -360 -229
-434 -380 -81 -163 -75 53 -76 -2891 l0 -2618 25 -76 c63 -187 213 -296 423
-307 50 -3 167 29 221 61 58 34 130 109 163 170 57 105 56 81 57 1231 0 581 0
1080 0 1109 l1 52 108 -63 c59 -34 231 -134 382 -221 151 -87 356 -206 455
-263 99 -58 200 -116 225 -130 25 -13 59 -33 76 -43 123 -74 297 -100 456 -68
112 22 149 41 548 272 298 172 513 296 1255 725 227 131 264 155 320 209 90
86 150 189 184 315 19 72 20 113 18 2674 l-2 2600 -37 76 c-94 189 -297 293
-494 252z m-1826 -2643 c26 -15 68 -39 93 -53 24 -14 185 -107 358 -207 172
-99 318 -181 322 -181 5 0 9 -4 9 -9 0 -5 6 -11 13 -13 10 -2 235 -129 317
-178 86 -52 151 -90 154 -90 17 0 178 -106 187 -123 13 -24 18 -1699 6 -1749
-8 -29 -19 -36 -507 -317 -146 -84 -290 -167 -320 -185 -72 -43 -301 -175
-348 -202 -20 -11 -109 -62 -196 -112 -87 -51 -161 -91 -162 -89 -2 2 -4 366
-4 809 0 876 0 865 -57 970 -33 60 -92 121 -160 165 -29 18 -55 33 -58 33 -4
0 -19 8 -33 18 -15 11 -58 36 -95 56 -37 20 -84 46 -105 58 -20 12 -86 49
-147 83 -60 34 -130 73 -155 87 -25 15 -130 74 -235 133 -252 142 -273 154
-320 181 -22 13 -64 36 -92 51 -29 15 -53 30 -53 34 0 4 39 29 88 57 90 52
296 171 562 325 85 49 180 103 210 120 30 17 71 40 90 52 19 12 60 36 90 53
30 17 145 83 255 147 146 84 206 114 222 110 13 -3 44 -18 71 -34z"/>
</g>
</svg>
